<?xml version="1.0" encoding="iso-8859-1"?>
<!-- Uploaded to: SVG Repo, www.svgrepo.com, Generator: SVG Repo Mixer Tools -->
<svg version="1.1" id="Layer_1" xmlns="http://www.w3.org/2000/svg" xmlns:xlink="http://www.w3.org/1999/xlink" 
	 viewBox="0 0 512 512" xml:space="preserve">
<rect x="238.14" y="220.279" style="fill:#00C47A;" width="35.721" height="59.535"/>
<path style="fill:#FF318F;" d="M330.419,74.419c-11.463,0-26.905,7.944-41.087,17.273c9.329-14.182,17.273-29.625,17.273-41.087
	C306.605,22.701,283.904,0,256,0s-50.605,22.701-50.605,50.605c0,11.463,7.944,26.905,17.272,41.087
	c-14.181-9.329-29.623-17.273-41.086-17.273c-27.904,0-50.605,22.701-50.605,50.605s22.701,50.605,50.605,50.605
	c11.463,0,26.905-7.944,41.086-17.273c-9.328,14.182-17.272,29.623-17.272,41.087c0,27.904,22.701,50.605,50.605,50.605
	s50.605-22.701,50.605-50.605c0-11.463-7.944-26.905-17.273-41.087c14.182,9.329,29.625,17.273,41.087,17.273
	c27.904,0,50.605-22.701,50.605-50.605S358.323,74.419,330.419,74.419z"/>
<path style="fill:#BF256B;" d="M330.419,74.419c-11.463,0-26.905,7.944-41.087,17.273c9.329-14.182,17.273-29.625,17.273-41.087
	C306.605,22.701,283.904,0,256,0v250.047c27.904,0,50.605-22.701,50.605-50.605c0-11.463-7.944-26.905-17.273-41.087
	c14.182,9.329,29.625,17.273,41.087,17.273c27.904,0,50.605-22.701,50.605-50.605S358.323,74.419,330.419,74.419z"/>
<path style="fill:#388CB2;" d="M404.837,279.814l-35.721,23.814v-59.535c0-32.828,26.707-59.535,59.535-59.535v35.721
	c-13.131,0-23.814,10.683-23.814,23.814V279.814z"/>
<path style="fill:#4BBAED;" d="M142.884,303.628l-35.721-23.814v-35.721c0-13.131-10.683-23.814-23.814-23.814v-35.721
	c32.828,0,59.535,26.707,59.535,59.535V303.628z"/>
<path style="fill:#60DD4D;" d="M119.342,296.88l9.357,159.081c1.85,31.424,27.954,56.039,59.434,56.039h135.735
	c31.48,0,57.583-24.615,59.432-56.039l9.358-159.081H119.342L119.342,296.88z"/>
<path style="fill:#00C47A;" d="M256,296.88V512h67.867c31.478,0,57.583-24.615,59.432-56.039l9.358-159.081H256L256,296.88z"/>
<rect x="107.163" y="273.86" style="fill:#FFDB2D;" width="297.674" height="89.302"/>
<rect x="256" y="273.86" style="fill:#FFAE33;" width="148.837" height="89.302"/>
<circle style="fill:#FFD738;" cx="256" cy="125.023" r="17.86"/>
</svg>